<svg width="400" height="400" viewBox="0 0 400 400" fill="none" xmlns="http://www.w3.org/2000/svg">
<g clip-path="url(#clip0)">
<path d="M216.93 221.966V221.929C207.046 221.731 199.093 213.818 199.093 204.069C199.093 213.797 191.17 221.698 181.314 221.925V221.966C191.17 222.193 199.093 230.093 199.093 239.821C199.089 230.077 207.046 222.164 216.93 221.966Z" fill="white"/>
<path d="M213.268 133H185.732C182.181 133 178.93 134.988 177.303 138.157L114.6 260.211C112.775 263.767 115.344 268.004 119.33 268.004H150.992C154.576 268.004 157.851 265.978 159.462 262.769L176.304 229.216C178.593 224.653 178.556 219.265 176.201 214.735L164.082 191.418C160.786 185.077 165.372 177.486 172.499 177.494L226.563 177.552C233.689 177.56 238.259 185.159 234.951 191.492L221.31 217.615C219.888 220.333 219.864 223.576 221.241 226.32L239.537 262.773C241.148 265.983 244.424 268.008 248.008 268.008H279.669C283.656 268.008 286.225 263.771 284.4 260.215L221.697 138.157C220.069 134.988 216.814 133 213.268 133Z" fill="white"/>
</g>
<defs>
<clipPath id="clip0">
<rect width="171" height="135" fill="white" transform="translate(114 133)"/>
</clipPath>
</defs>
</svg>
