<svg width="126" height="43" viewBox="0 0 126 43" fill="none" xmlns="http://www.w3.org/2000/svg">
<path d="M32.4545 0H9.54545C4.27365 0 0 4.27365 0 9.54545V32.4545C0 37.7264 4.27365 42 9.54545 42H32.4545C37.7264 42 42 37.7264 42 32.4545V9.54545C42 4.27365 37.7264 0 32.4545 0Z" fill="url(#paint0_linear_425_5036)"/>
<path d="M32.4545 0H9.54545C4.27365 0 0 4.27365 0 9.54545V32.4545C0 37.7264 4.27365 42 9.54545 42H32.4545C37.7264 42 42 37.7264 42 32.4545V9.54545C42 4.27365 37.7264 0 32.4545 0Z" fill="url(#paint1_radial_425_5036)"/>
<path d="M32.4545 0H9.54545C4.27365 0 0 4.27365 0 9.54545V32.4545C0 37.7264 4.27365 42 9.54545 42H32.4545C37.7264 42 42 37.7264 42 32.4545V9.54545C42 4.27365 37.7264 0 32.4545 0Z" fill="url(#paint2_radial_425_5036)"/>
<path d="M32.4545 0H9.54545C4.27365 0 0 4.27365 0 9.54545V32.4545C0 37.7264 4.27365 42 9.54545 42H32.4545C37.7264 42 42 37.7264 42 32.4545V9.54545C42 4.27365 37.7264 0 32.4545 0Z" fill="url(#paint3_radial_425_5036)"/>
<path d="M17.2526 32.2614V22.5192L26.7185 32.2614H31.9849V32.0079L21.0964 20.9122L31.1469 10.3857V10.2614H25.8464L17.2526 19.5635V10.2614H12.9849V32.2614H17.2526Z" fill="white"/>
<path d="M56.1765 32.9384V22.8958L65.5839 32.9384H70.8257V32.6777L60.001 21.2433L69.98 10.3892V10.2614H64.7094L56.1669 19.8515V10.2614H51.9341V32.9384H56.1717H56.1765ZM78.0998 33.4253C80.5405 33.4253 83.207 32.5499 84.9078 30.8335L82.3999 28.34C81.4678 29.2794 79.6084 29.8351 78.1622 29.8351C75.3708 29.8351 73.6988 28.4089 73.4441 26.4318H85.7967C85.8303 25.9155 85.864 25.4286 85.864 24.9368C85.864 19.3646 82.6497 16.5466 77.8019 16.5466C72.661 16.5466 69.3891 20.0433 69.3891 24.9073C69.3939 29.9925 72.637 33.4253 78.0998 33.4253ZM82.0491 23.1564H73.5018C74.112 21.081 75.784 20.0433 77.9268 20.0433C80.2138 20.0433 81.7897 21.081 82.0443 23.1564H82.0491ZM91.4757 40.2614V31.0597C92.6288 32.84 95.0407 33.3909 96.7463 33.3909C101.82 33.3909 104.741 29.6335 104.741 24.9663C104.741 20.2991 101.498 16.6056 96.6166 16.6056C94.8197 16.6056 92.7297 17.3532 91.4805 19.1679L91.221 16.9646H87.5504V40.2515H91.4757V40.2614ZM96.3235 29.54C93.6233 29.54 91.8264 27.4646 91.8264 24.9712C91.8264 22.4777 93.4984 20.4368 96.3235 20.4368C99.1486 20.4368 100.821 22.4777 100.821 24.9712C100.821 27.4646 99.0189 29.54 96.3187 29.54H96.3235ZM110.569 32.9433V10.2909H106.677V32.9384H110.569V32.9433ZM117.392 32.9433V24.5187C117.392 21.5286 119.289 20.4614 121.341 20.4614C122.629 20.4614 123.364 20.8892 124.166 21.4991L125.934 18.0614C125.069 17.2499 123.493 16.5663 121.855 16.5663C120.217 16.5663 118.549 16.8564 117.392 18.7991L117.103 16.9548H113.471V32.9236L117.392 32.9384V32.9433Z" fill="white"/>
<defs>
<linearGradient id="paint0_linear_425_5036" x1="21" y1="0" x2="21" y2="42" gradientUnits="userSpaceOnUse">
<stop stop-color="#1FD1FF"/>
<stop offset="1" stop-color="#1BB8FF"/>
</linearGradient>
<radialGradient id="paint1_radial_425_5036" cx="0" cy="0" r="1" gradientUnits="userSpaceOnUse" gradientTransform="translate(2.00623 40.4086) rotate(-45.1556) scale(67.3547 68.3624)">
<stop stop-color="#232DE3"/>
<stop offset="1" stop-color="#232DE3" stop-opacity="0"/>
</radialGradient>
<radialGradient id="paint2_radial_425_5036" cx="0" cy="0" r="1" gradientUnits="userSpaceOnUse" gradientTransform="translate(39.7379 41.7602) rotate(-138.45) scale(42.1137 64.2116)">
<stop stop-color="#8B4DFF"/>
<stop offset="1" stop-color="#8B4DFF" stop-opacity="0"/>
</radialGradient>
<radialGradient id="paint3_radial_425_5036" cx="0" cy="0" r="1" gradientUnits="userSpaceOnUse" gradientTransform="translate(20.6501 0.311498) rotate(90) scale(33.1135 80.3423)">
<stop stop-color="#24D5FF"/>
<stop offset="1" stop-color="#1BB8FF" stop-opacity="0"/>
</radialGradient>
</defs>
</svg>
