<?xml version="1.0" encoding="UTF-8" standalone="no"?><svg xmlns="http://www.w3.org/2000/svg" xmlns:xlink="http://www.w3.org/1999/xlink" fill="#000000" height="403" preserveAspectRatio="xMidYMid meet" version="1" viewBox="0.0 -1.7 485.2 403.0" width="485.2" zoomAndPan="magnify"><g id="change1_1"><path d="M162.3,26.2c11.3-3.6,22.5-7.3,34.3-8.9c12.5-1.6,24.9-4.6,37.6-4.5c-4.7,1.5-3.8,4.6-3.2,8.5 c4.1,25.2,8.9,50.3,13.8,75.4c0.4,1.8,0.4,4.6,3.3,4.3c2.6-0.3,2-2.8,2.1-4.5c1.4-26.1,2.7-52.2,4.3-78.3c0.2-3.5-1.4-4.4-4-5.3 c30-0.7,58.4,6.2,85.6,18.7c-2.8,3.2-7,4.9-9.9,9c6.8,0.4,11.1-4.5,16.7-5.6c3.9,2,8.1,3.4,11.4,6.5c-3,3.6-6.4,6.8-8,11.4 c0,0-0.2,0.1-0.2,0.1l0.1-0.1c6.4-0.8,11.7-4.3,17.2-7c0.8,0.8,1.5,1.8,2.4,2.5c8.7,5.8,16.7,12.6,24.5,19.5 c-1.5,5.6-1.2,11.4-1.2,17.1c0,1.2-0.2,2.7,1.3,3c1.3,0.3,2.2-0.9,2.7-1.9c1.6-3.5,3.8-6.8,4.5-10.7c14.1,14.8,26.1,31,34.1,50 c-1.8,0.9-3.6,1.9-5.5,2.7c-25.2,11.2-50.4,22.3-75.5,33.6c-2.5,1.1-7.6,1.9-6.1,5.4c1.5,3.6,5.5,0.4,8-0.7 c18.4-7.9,36.7-16,55.1-23.9c8.8-3.8,17.1-8.5,26.4-11.1c4,5,5.1,11.3,7.1,17.2c2.7,7.8,4.9,15.8,5.8,24.1 c-30.4,3.2-61,4.1-91.2,9.1c1.5,2.1,3.3,1.6,4.9,1.5c6-0.2,11.9-0.6,17.9-1c11.6-0.9,23.1-1.9,34.7-2.7c11.6-0.8,23.1-1.5,34.7-2.2 c1.5,11.7,2.6,23.5,2.1,35.4c-0.3,5.7-1.1,11.4-1.7,17.1c-1-0.2-2-0.4-2.9-0.7c-27.9-8.6-55.7-17.3-83.6-25.9 c-1.6-0.5-4.3-2.1-5-0.1c-0.9,2.6,2.4,2.7,4.1,3.3c8.7,3.1,17.4,6.1,26.1,9c20.3,6.7,40.6,13.4,60.8,20.1c-2.1,9.4-3.9,18.8-7,27.9 c-0.3,0.8-0.3,1.7-1.2,2.1c-1.6-1.4-3.4-2.1-5.5-2.5c-14.5-3-29-6.1-43.5-9.1c-5.5-1.2-11-2.4-16.5-3.5c-1.8-0.3-3.6-0.1-4.1,2 c-0.5,1.8,0.8,2.6,2.2,3.6c3.5,2.4,6.8,5.2,10.2,7.7c11.9,8.8,23.9,17.6,35.9,26.4c2.7,2,4.8,5.8,9.1,3.6 c-4.7,10.9-11.7,20.4-19,29.7c-2.8-3-5.9-5.7-9-8.3c-11.2-9.2-23.5-16.9-34-27c-0.6-0.6-1.3-1.2-2.3-0.6c-1,0.6-1.2,1.5-0.9,2.6 c0.3,1,0.5,2,0.9,2.9c8,17.4,16.3,34.5,25.4,51.4c-5.3,7.3-12.8,12.2-20,17.2c-25.2,17.8-53.1,29.6-83.4,35.2 c-16.5,3-33.2,4.4-49.9,3.2c-40.2-2.9-77.4-15-110.3-39.1c2.7-0.3,4.9-1.2,6.1-4c8.3-20.4,16.7-40.8,24.9-61.3 c1.1-2.8,2.8-6.7-0.7-9c-3.5-2.2-5.6,1.5-7.7,3.4c-14.3,13-28.4,26.3-42.6,39.4c-3,2.8-4.5,5.9-4.4,9.9 c-7.3-5.8-13.3-12.7-18.1-20.6c1.8-0.5,3.4-1.4,4.8-2.8c21.1-21.2,42.3-42.4,63.5-63.6c0.8-0.8,1.8-1.6,2.4-2.6 c1.8-2.7,0.7-5.2-2.4-5.7c-1.8-0.3-3.3,0.8-4.8,1.6c-24.4,13.9-48.7,27.9-73.1,41.7c-3.6,2.1-5.8,4.5-5.4,8.8 c-7.9-13.8-14.2-28.2-17.7-43.8c1.1-0.7,2.2-1.6,3.4-2.2c25.9-14.4,51.7-28.8,77.6-43.2c1.5-0.8,4.3-1.5,3-3.7 c-1.1-1.7-3.1,0.3-4.5,1c-10.9,5.8-21.7,11.7-32.5,17.5c-16.1,8.6-32.3,17.1-48.5,25.7c-4.2-17.2-4.8-34.6-4.5-52.2 c0.1-3.3,1-6.4,1.1-9.6c8-0.1,16.1-0.3,24.1-0.4c17.4-0.4,34.9-0.8,52.3-1.4c2-0.1,5.9,0.6,5.8-2.3c-0.1-2.6-3.7-1.5-5.8-1.5 C96.3,180,71.1,180,46,180c1.2-15,5.8-29.1,11.1-43c0.7-1.9,1.6-3.7,2.3-5.6c6.3,2.6,12.6,5.3,18.9,7.9 c22.1,9.4,44.2,18.9,66.4,28.3c1.5,0.7,3.9,2.4,4.9,0.1c0.8-1.9-1.9-2.5-3.3-3.2c-8.6-4.1-17.4-8-26.1-11.9 c-19.6-8.9-39.2-17.7-58.7-26.6c7.6-20.2,18.7-38.4,32.7-54.8c1.5-1.8,2.9-3.8,5.4-4.6c2.7,6.9,1.8,14.9,7.1,21.9 c1.8-5.9,2.5-10.6,1.3-15.9c-1.1-4.7-0.9-9.8-1.2-14.6c3.4-0.3,4.3-4.5,7.8-4.7c3.1,8.6,3.3,18.3,10.1,26.1c1-2.9,1.8-5,1.7-7.4 c-0.6-8.6-1.8-17.1-4-25.4c9-5.1,17.8-10.8,27.6-14.5c5.9,2.3,11.8,4.7,17.8,7c2,0.8,4.8,1.6,6-0.5c1.1-1.8-0.8-3.8-2.3-5.2 C168.4,30.9,165.3,28.6,162.3,26.2z M166,108.1c-3.5-0.3-9.3,0.2-15.1,1.2c-6.7,1.2-13.4,2.6-19.3,6.2c-8.2,5.1-8.7,12-1.3,18.3 c3.7,3.1,8.1,5.2,12.6,6.8c18.2,6.5,37,7.9,56,6c8.3-0.8,16.6-2.5,23.8-7.2c7.8-5.1,8.3-11.9,1.2-18.1c-3.8-3.3-8.3-5.2-13-7.1 C197.2,108.9,182.8,108.4,166,108.1z M316.5,108.2c-9.7-0.4-18.3,0.3-26.9,2.1c-8.1,1.7-16,3.7-22.5,9.1c-6.3,5.3-6.1,11,0.2,16.3 c3.5,2.9,7.6,4.7,11.9,5.9c23.3,6.5,46.6,6,69.6-1.3c4.5-1.4,8.9-3.6,12.5-6.9c4.8-4.5,5.2-9.5,1-13.9c-6.1-6.4-14.6-9.6-22.5-10.3 C332,108.3,323.7,106.8,316.5,108.2z M249.1,183.2c0.6,0.3,1.1,0.4,1.2,0.6c8.4,18.9,32.1,31.6,57,27.2c13.8-2.4,24.9-9.2,32-21.7 c1-1.8,2.1-4-0.4-5.4c-2.5-1.5-3.6,0.8-4.7,2.6c-9.9,15.4-27.9,22.3-47,18.1c-18.6-4.1-32.5-18.3-35.1-35.9 c-0.3-2.1-1.1-4.5,1.4-6.1c2.2-1.5,2.4-3.2,0.4-5.1c-2.3-2.2-7.5-2-9.4,0.4c-1.6,2-1.9,4.2,0.7,5.6c1.7,0.9,2.6,1.8,2.3,4 c-1.6,9.6-5,18.4-11.5,25.9c-20.6,24-57.7,24.9-80.9,2.1c-1.7-1.7-3.5-4.8-6.3-1.9c-2.4,2.4,0.1,4.4,1.7,6.1 c24.2,25.8,68.3,24.3,90.7-3C244.4,192.5,246.8,187.9,249.1,183.2z" fill="#e69674"/></g><g id="change2_1"><path d="M316.5,108.2c7.2-1.4,15.5,0.1,23.4,0.9c7.8,0.7,16.4,3.9,22.5,10.3c4.2,4.4,3.8,9.4-1,13.9 c-3.6,3.3-7.9,5.4-12.5,6.9c-23,7.3-46.3,7.8-69.6,1.3c-4.3-1.2-8.4-3-11.9-5.9c-6.4-5.3-6.6-11-0.2-16.3c6.5-5.4,14.5-7.5,22.5-9.1 C298.2,108.5,306.8,107.8,316.5,108.2z M330.3,111.9c-19.4-1.4-37.5-0.1-54.9,7.2c-3.8,1.6-8.7,3.6-8.7,8.5c0.1,5.2,5.2,7,9.3,8.4 c16.9,5.9,34.3,6.6,52,4.3C320.5,126.6,320.7,123.5,330.3,111.9z" fill="#000000"/></g><g id="change3_1"><path d="M67.7,296.3c-0.4-4.3,1.8-6.8,5.4-8.8c24.4-13.8,48.7-27.8,73.1-41.7c1.5-0.8,2.9-1.9,4.8-1.6 c3.1,0.4,4.2,3,2.4,5.7c-0.7,1-1.6,1.8-2.4,2.6c-21.2,21.2-42.3,42.4-63.5,63.6c-1.4,1.4-3,2.3-4.8,2.8 C74,313.8,69.9,305.7,67.7,296.3z M125.2,361c2.7-0.3,4.9-1.2,6.1-4c8.3-20.4,16.7-40.8,24.9-61.3c1.1-2.8,2.8-6.7-0.7-9 c-3.5-2.2-5.6,1.5-7.7,3.4c-14.3,13-28.4,26.3-42.6,39.4c-3,2.8-4.5,5.9-4.4,9.9C106.7,349.1,114,357.3,125.2,361z M149.8,18.5 c-12.9-7.1-25.9-14.2-40.3-17.8C100.1-1.7,92.6,2,91.9,9.9c-0.7,7.8,0.1,15.6,1.4,23.4c2,11.1,4.1,22.3,6.2,33.4 c2.7,6.9,1.8,14.9,7.1,21.9c1.8-5.9,2.5-10.6,1.3-15.9c-1.1-4.7-0.9-9.8-1.2-14.6c-2.3-8.2-2.6-16.7-4.4-24.9 c-1.3-5.9-0.5-11.9-1.6-17.7c-0.9-4.5,1-6,5.7-4.9c11.7,2.6,21.6,9,31.8,14.6c3.9,2.2,7.7,4.6,11.6,7c5.9,2.3,11.8,4.7,17.8,7 c2,0.8,4.8,1.6,6-0.5c1.1-1.8-0.8-3.8-2.3-5.2c-2.9-2.5-6-4.9-9-7.3C158.1,23.6,154.1,20.9,149.8,18.5z M430.2,288.5 c4.5-7.1,10.5-13.7,9.6-23c-1.6-1.4-3.4-2.1-5.5-2.5c-14.5-3-29-6.1-43.5-9.1c-5.5-1.2-11-2.4-16.5-3.5c-1.8-0.3-3.6-0.1-4.1,2 c-0.5,1.8,0.8,2.6,2.2,3.6c3.5,2.4,6.8,5.2,10.2,7.7c11.9,8.8,23.9,17.6,35.9,26.4c2.7,2,4.8,5.8,9.1,3.6 C428.6,292.2,429.1,290.2,430.2,288.5z M354.5,28.1c12.3-6.7,24.7-13.3,38.2-17.7c5.6-1.9,5.7-1.8,5.9,3.8c0.5,16.5-3,32.5-6.8,48.4 c-0.4,1.7,0.6,3.9-1.3,5.2c-1.5,5.6-1.2,11.4-1.2,17.1c0,1.2-0.2,2.7,1.3,3c1.3,0.3,2.2-0.9,2.7-1.9c1.6-3.5,3.8-6.8,4.5-10.7 c1.2-4.9,2.5-9.7,3.5-14.7c3.5-16.9,8-33.7,5.7-51.3c-0.9-6.5-3.2-8.9-9.8-9c-7.4-0.1-13.6,3.7-20,6.6c-14.5,6.7-27.6,16-41,24.6 c-2.8,3.2-7,4.9-9.9,9c6.8,0.4,11.1-4.5,16.7-5.6C346.2,31.5,350.6,30.3,354.5,28.1z M234.1,12.8c-4.7,1.5-3.8,4.6-3.2,8.5 c4.1,25.2,8.9,50.3,13.8,75.4c0.4,1.8,0.4,4.6,3.3,4.3c2.6-0.3,2-2.8,2.1-4.5c1.4-26.1,2.7-52.2,4.3-78.3c0.2-3.5-1.4-4.4-4-5.3 C245,12.2,239.6,12.3,234.1,12.8z M408.6,325.9c0.4-0.5-0.1-1.6-0.1-2.5c-2.8-3-5.9-5.7-9-8.3c-11.2-9.2-23.5-16.9-34-27 c-0.6-0.6-1.3-1.2-2.3-0.6c-1,0.6-1.2,1.5-0.9,2.6c0.3,1,0.5,2,0.9,2.9c8,17.4,16.3,34.5,25.4,51.4 C397.6,340.8,403.2,333.4,408.6,325.9z M58.6,125c-9.8-4.3-19.6-8.7-29.4-13.1c-2.1-0.9-4.6-2-5.7,0.9c-1,2.6,1.4,3.5,3.3,4.3 c10.9,4.8,21.8,9.5,32.7,14.3c6.3,2.6,12.6,5.3,18.9,7.9c22.1,9.4,44.2,18.9,66.4,28.3c1.5,0.7,3.9,2.4,4.9,0.1 c0.8-1.9-1.9-2.5-3.3-3.2c-8.6-4.1-17.4-8-26.1-11.9c-19.6-8.9-39.2-17.7-58.7-26.6C60.5,125.7,59.5,125.5,58.6,125z M451.1,123.1 c1.9-0.9,4.3-1.6,3.3-4.2c-1.2-3-3.5-1.6-5.6-0.8c-5.6,2.4-11.3,4.7-16.9,7c-1.8,0.9-3.6,1.9-5.5,2.7 c-25.2,11.2-50.4,22.3-75.5,33.6c-2.5,1.1-7.6,1.9-6.1,5.4c1.5,3.6,5.5,0.4,8-0.7c18.4-7.9,36.7-16,55.1-23.9 c8.8-3.8,17.1-8.5,26.4-11.1C439.3,127.3,445.5,125.9,451.1,123.1z M478.3,245c2.2,0.7,5.1,2.3,6-1c0.9-2.9-2.1-3.2-4.2-3.9 c-10.5-3.6-21.3-6.1-31.6-10.4c-1-0.2-2-0.4-2.9-0.7c-27.9-8.6-55.7-17.3-83.6-25.9c-1.6-0.5-4.3-2.1-5-0.1 c-0.9,2.6,2.4,2.7,4.1,3.3c8.7,3.1,17.4,6.1,26.1,9c20.3,6.7,40.6,13.4,60.8,20.1C458.1,238.7,468.2,241.8,478.3,245z M24,180.8 c-6.7,0.1-13.3,0-20,0c-2,0-4,0.3-4,2.8c0,2.5,2,2.8,4.1,2.8c1.5,0,3.1,0,4.6,0c12.1-0.3,24.2-0.6,36.3-0.8c8-0.1,16.1-0.3,24.1-0.4 c17.4-0.4,34.9-0.8,52.3-1.4c2-0.1,5.9,0.6,5.8-2.3c-0.1-2.6-3.7-1.5-5.8-1.5C96.3,180,71.1,180,46,180 C38.6,180.3,31.3,180.7,24,180.8z M28.9,258.5c-1.6,0.9-3.9,1.8-2.7,4.1c1.3,2.4,3.3,0.8,4.9,0c6.3-3.3,12.6-6.8,18.9-10.1 c1.1-0.7,2.2-1.6,3.4-2.2c25.9-14.4,51.7-28.8,77.6-43.2c1.5-0.8,4.3-1.5,3-3.7c-1.1-1.7-3.1,0.3-4.5,1 c-10.9,5.8-21.7,11.7-32.5,17.5c-16.1,8.6-32.3,17.1-48.5,25.7C42.4,251.9,35.4,254.7,28.9,258.5z M462.9,175.9 c1.9-0.1,3.7-0.4,3.4-2.7c-0.2-2.3-2.2-2.1-4-2c-5.1,0.5-10.2,0.8-15.3,1.2c-30.4,3.2-61,4.1-91.2,9.1c1.5,2.1,3.3,1.6,4.9,1.5 c6-0.2,11.9-0.6,17.9-1c11.6-0.9,23.1-1.9,34.7-2.7c11.6-0.8,23.1-1.5,34.7-2.2C453.1,176.8,458,176.3,462.9,175.9z M150.9,109.3 c-6.7,1.2-13.4,2.6-19.3,6.2c-8.2,5.1-8.7,12-1.3,18.3c3.7,3.1,8.1,5.2,12.6,6.8c18.2,6.5,37,7.9,56,6c8.3-0.8,16.6-2.5,23.8-7.2 c7.8-5.1,8.3-11.9,1.2-18.1c-3.8-3.3-8.3-5.2-13-7.1c-13.8-5.4-28.2-5.9-45-6.1C162.4,107.9,156.6,108.3,150.9,109.3z M182.2,142.5 c-17.2-0.9-33.5-2-47.9-11c-7.2-4.5-6.7-9.2,0.9-13.2c6.1-3.3,12.8-4.4,19.6-5.2c10-1.2,20-0.7,31-0.4 C175,121.6,176.3,131.5,182.2,142.5z M250.3,183.8c8.4,18.9,32.1,31.6,57,27.2c13.8-2.4,24.9-9.2,32-21.7c1-1.8,2.1-4-0.4-5.4 c-2.5-1.5-3.6,0.8-4.7,2.6c-9.9,15.4-27.9,22.3-47,18.1c-18.6-4.1-32.5-18.3-35.1-35.9c-0.3-2.1-1.1-4.5,1.4-6.1 c2.2-1.5,2.4-3.2,0.4-5.1c-2.3-2.2-7.5-2-9.4,0.4c-1.6,2-1.9,4.2,0.7,5.6c1.7,0.9,2.6,1.8,2.3,4c-1.6,9.6-5,18.4-11.5,25.9 c-20.6,24-57.7,24.9-80.9,2.1c-1.7-1.7-3.5-4.8-6.3-1.9c-2.4,2.4,0.1,4.4,1.7,6.1c24.2,25.8,68.3,24.3,90.7-3 c3.3-4.1,5.7-8.8,8-13.5C249.7,183.5,250.2,183.5,250.3,183.8z M346.2,52.7L346.2,52.7c6.3-0.8,11.6-4.2,17.2-7 c5.3-3.4,11.2-5.8,16.1-9.8c5.1-4.1,8.9-8.8,9.7-13c-7.6,0.1-13.6,4-19.6,7.8c-5.3,3.3-10.3,7.1-15.5,10.7 C351.2,44.9,347.8,48.1,346.2,52.7z M124.6,79.5c1-2.9,1.8-5,1.7-7.4c-0.6-8.6-1.8-17.1-4-25.4c-2.3-6.3-2.8-13.3-6.6-19.1 c-2.3,2.9-1.6,6.1-1.9,9.1c-0.7,5.6,1.6,11.1,0.8,16.7C117.5,61.9,117.8,71.6,124.6,79.5z" fill="#000000"/></g><g id="change2_2"><path d="M346.2 52.7L346.1 52.8 346.2 52.7z" fill="#000000"/></g><g id="change4_1"><path d="M185.9,112.6c-10.9,9.1-9.6,18.9-3.7,29.9c-17.2-0.9-33.5-2-47.9-11c-7.2-4.5-6.7-9.2,0.9-13.2 c6.1-3.3,12.8-4.4,19.6-5.2C164.8,111.7,174.8,112.3,185.9,112.6z" fill="#ffffff"/></g><g id="change4_2"><path d="M330.3,111.9c-9.6,11.6-9.7,14.7-2.2,28.3c-17.8,2.3-35.1,1.6-52-4.3c-4.1-1.4-9.2-3.2-9.3-8.4 c-0.1-4.9,4.8-6.8,8.7-8.5C292.7,111.8,310.9,110.5,330.3,111.9z" fill="#ffffff"/></g></svg>