<svg width="22" height="121" viewBox="0 0 22 121" fill="none" xmlns="http://www.w3.org/2000/svg">
<path d="M0.657854 110.241C0.657854 107.736 1.17328 105.884 2.20413 104.685C3.22299 103.475 4.6434 102.869 6.46536 102.869C7.44826 102.869 8.29332 103.115 9.00053 103.607C9.69575 104.086 10.2531 104.763 10.6727 105.638C11.4158 102.893 13.1299 101.521 15.8149 101.521C17.8406 101.521 19.3809 102.186 20.4357 103.517C21.4786 104.847 22 106.753 22 109.234L22 119.609C22 119.896 21.9521 120.118 21.8562 120.274C21.7603 120.43 21.5805 120.55 21.3168 120.634C21.0531 120.705 20.6695 120.741 20.166 120.741C19.6626 120.741 19.279 120.705 19.0153 120.634C18.7516 120.55 18.5718 120.43 18.4759 120.274C18.3681 120.118 18.3141 119.896 18.3141 119.609L18.3141 117.685L4.34373 117.685L4.34374 119.609C4.34374 119.896 4.29579 120.118 4.1999 120.274C4.104 120.43 3.9242 120.55 3.6605 120.634C3.39679 120.705 3.01322 120.741 2.50978 120.741C2.00635 120.741 1.62278 120.705 1.35907 120.634C1.09537 120.55 0.915567 120.43 0.819674 120.274C0.711795 120.118 0.657855 119.896 0.657855 119.609L0.657854 110.241ZM9.16235 113.19L9.16235 110.637C9.16235 109.558 8.97056 108.755 8.58699 108.227C8.20342 107.7 7.61608 107.436 6.82496 107.436C6.02186 107.436 5.44051 107.694 5.08091 108.209C4.70933 108.713 4.52353 109.522 4.52353 110.637L4.52353 113.19L9.16235 113.19ZM18.1343 113.19L18.1343 109.738C18.1343 107.412 17.3013 106.25 15.6351 106.25C14.7481 106.25 14.0948 106.537 13.6753 107.113C13.2438 107.676 13.028 108.551 13.028 109.738L13.028 113.19L18.1343 113.19ZM0.657853 70.2646C0.657853 69.8451 0.747752 69.5454 0.927551 69.3656C1.10735 69.1858 1.40702 69.0959 1.82655 69.0959L7.25648 69.0959C7.66402 69.0959 7.95769 69.2697 8.13749 69.6173C8.3053 69.965 8.38921 70.5223 8.38921 71.2895C8.38921 72.0326 8.3053 72.5421 8.13749 72.8178C7.96968 73.0935 7.67601 73.2313 7.25648 73.2313L4.52353 73.2313L4.52353 80.4233L9.07245 80.4233L9.07245 76.0362C9.07245 75.6166 9.21029 75.323 9.48599 75.1552C9.76168 74.9873 10.2711 74.9034 11.0143 74.9034C11.7574 74.9034 12.2669 74.9873 12.5426 75.1552C12.8063 75.323 12.9381 75.6166 12.9381 76.0362L12.9381 80.4233L18.1343 80.4233L18.1343 73.0515L14.5024 73.0515C14.0948 73.0515 13.8072 72.8777 13.6393 72.5301C13.4595 72.1705 13.3696 71.5891 13.3696 70.786C13.3696 69.9949 13.4536 69.4555 13.6214 69.1679C13.7892 68.8802 14.0828 68.7363 14.5024 68.7363L20.8313 68.7363C21.2388 68.7363 21.5385 68.8262 21.7303 69.006C21.9101 69.1858 22 69.4855 22 69.905L22 86.6623C22 86.95 21.9521 87.1717 21.8562 87.3276C21.7603 87.4834 21.5805 87.6032 21.3168 87.6872C21.0531 87.7591 20.6695 87.795 20.166 87.795C19.6626 87.795 19.279 87.7591 19.0153 87.6872C18.7516 87.6032 18.5718 87.4834 18.4759 87.3276C18.3681 87.1717 18.3141 86.95 18.3141 86.6623L18.3141 84.9182L4.34373 84.9182L4.34373 86.6623C4.34373 86.95 4.29579 87.1717 4.19989 87.3276C4.104 87.4834 3.9242 87.6032 3.6605 87.6872C3.39679 87.7591 3.01322 87.795 2.50978 87.795C2.00635 87.795 1.62277 87.7591 1.35907 87.6872C1.09536 87.6032 0.915565 87.4834 0.819673 87.3276C0.711793 87.1717 0.657853 86.95 0.657853 86.6623L0.657853 70.2646ZM0.657851 36.5991C0.657851 36.1795 0.747751 35.8799 0.92755 35.7001C1.10735 35.5203 1.40701 35.4304 1.82654 35.4304L9.41406 35.4304C9.80962 35.4304 10.0973 35.5982 10.2771 35.9338C10.4569 36.2574 10.5468 36.7609 10.5468 37.4441C10.5468 38.1034 10.4629 38.5649 10.2951 38.8286C10.1153 39.0803 9.82161 39.2061 9.41406 39.2061L4.52353 39.2061L4.52353 42.4605L18.3141 42.4605L18.3141 38.5768C18.3141 38.2892 18.3681 38.0674 18.4759 37.9116C18.5718 37.7558 18.7516 37.6419 19.0153 37.57C19.279 37.4861 19.6626 37.4441 20.166 37.4441C20.6695 37.4441 21.0531 37.4861 21.3168 37.57C21.5805 37.6419 21.7603 37.7558 21.8562 37.9116C21.952 38.0674 22 38.2892 22 38.5768L22 50.8391C22 51.1268 21.9521 51.3486 21.8562 51.5044C21.7603 51.6602 21.5805 51.7801 21.3168 51.864C21.0531 51.9359 20.6695 51.9719 20.166 51.9719C19.6626 51.9719 19.279 51.9359 19.0153 51.864C18.7516 51.7801 18.5718 51.6602 18.4759 51.5044C18.3681 51.3486 18.3141 51.1268 18.3141 50.8391L18.3141 46.9555L4.52353 46.9555L4.52353 50.2098L9.41406 50.2098C9.80962 50.2098 10.0973 50.3777 10.2771 50.7133C10.4569 51.0369 10.5468 51.5404 10.5468 52.2236C10.5468 52.8829 10.4629 53.3443 10.2951 53.608C10.1153 53.8598 9.82161 53.9856 9.41406 53.9856L1.82655 53.9856C1.40701 53.9856 1.10735 53.8957 0.927551 53.7159C0.747751 53.5241 0.657852 53.2245 0.657852 52.8169L0.657851 36.5991ZM0.65785 10.0895C0.65785 9.61003 0.753743 9.22046 0.945528 8.9208C1.12533 8.62113 1.419 8.40537 1.82654 8.27352L18.3141 3.05935L18.3141 1.4951C18.3141 1.20742 18.3621 0.985665 18.458 0.829839C18.5538 0.674013 18.7336 0.560141 18.9974 0.488221C19.2611 0.404315 19.6446 0.362362 20.1481 0.362362C20.6515 0.362362 21.0351 0.404315 21.2988 0.488221C21.5625 0.560141 21.7483 0.674013 21.8562 0.829839C21.952 0.985665 22 1.20742 22 1.4951L22 9.11857C22 9.40625 21.952 9.628 21.8562 9.78383C21.7483 9.93966 21.5625 10.0595 21.2988 10.1434C21.0351 10.2153 20.6515 10.2513 20.1481 10.2513C19.6446 10.2513 19.2611 10.2153 18.9974 10.1434C18.7336 10.0595 18.5538 9.93966 18.458 9.78383C18.3621 9.62801 18.3141 9.40625 18.3141 9.11857L18.3141 7.5723L15.707 8.3814L15.707 14.9261L18.3141 15.7352L18.3141 14.4047C18.3141 14.117 18.3621 13.8952 18.458 13.7394C18.5538 13.5836 18.7336 13.4697 18.9974 13.3978C19.2611 13.3139 19.6446 13.2719 20.1481 13.2719C20.6515 13.2719 21.0351 13.3139 21.2988 13.3978C21.5625 13.4697 21.7483 13.5836 21.8562 13.7394C21.952 13.8952 22 14.117 22 14.4047L22 21.6685C22 21.9562 21.952 22.178 21.8562 22.3338C21.7483 22.4896 21.5625 22.6035 21.2988 22.6754C21.0351 22.7593 20.6515 22.8013 20.1481 22.8013C19.6446 22.8013 19.2611 22.7593 18.9974 22.6754C18.7336 22.6035 18.5538 22.4896 18.458 22.3338C18.3621 22.178 18.3141 21.9562 18.3141 21.6685L18.3141 20.1582L4.34373 15.6093L4.34373 18.612C4.34373 18.8996 4.29578 19.1214 4.19989 19.2772C4.09201 19.433 3.90622 19.5529 3.64251 19.6368C3.37881 19.7087 2.99524 19.7447 2.4918 19.7447C1.98836 19.7447 1.60479 19.7087 1.34109 19.6368C1.07738 19.5529 0.897583 19.433 0.80169 19.2772C0.705797 19.1214 0.65785 18.8996 0.65785 18.612L0.65785 10.0895ZM4.34373 11.6717L12.0211 13.8832L12.0211 9.40625L4.34373 11.5638L4.34373 11.6717Z" fill="#F03AA9"/>
</svg>
