<svg width="111" height="758" viewBox="0 0 111 758" fill="none" xmlns="http://www.w3.org/2000/svg">
<path opacity="0.85" d="M104.555 714.698C104.555 714.905 104.607 715.265 104.71 715.781C104.813 716.296 104.865 716.811 104.865 717.326C104.968 717.842 105.019 718.305 105.019 718.718C105.122 719.027 105.174 719.13 105.174 719.027L105.174 726.601C104.968 728.25 104.813 729.641 104.71 730.775C104.71 731.805 104.761 732.733 104.865 733.557C104.865 733.763 104.761 733.969 104.555 734.176C104.452 734.382 104.349 734.536 104.246 734.639C103.319 734.742 101.927 734.794 100.073 734.794C98.2176 734.691 96.7748 734.639 95.7443 734.639L93.5802 734.639C91.8282 734.433 90.2824 734.382 88.9427 734.485C87.5 734.588 85.9027 734.639 84.1508 734.639L80.75 734.639C78.4828 734.124 76.1126 734.021 73.6393 734.33C71.166 734.536 68.8989 734.639 66.8378 734.639L27.4199 734.639C26.3893 734.639 25.874 734.897 25.874 735.412C25.771 736.855 25.7195 737.989 25.7195 738.813C25.7195 739.637 25.771 740.771 25.874 742.214C25.874 742.832 25.7195 743.914 25.4103 745.46C25.1011 746.903 24.9981 747.882 25.1011 748.397C25.3073 748.912 25.3073 749.994 25.1011 751.643C24.895 753.189 24.792 754.219 24.792 754.735C24.792 755.25 24.792 755.714 24.792 756.126C24.6889 756.538 24.4828 756.95 24.1737 757.363L14.5897 757.363C14.3836 756.95 14.2805 756.332 14.2805 755.508C14.2805 754.683 14.2805 753.859 14.2805 753.034C14.2805 752.004 14.2805 751.076 14.2805 750.252C14.2805 749.427 14.229 748.655 14.126 747.933C14.126 747.727 14.1775 747.006 14.2805 745.769C14.3836 744.532 14.4866 743.502 14.5897 742.677C14.3836 742.059 14.2805 741.441 14.2805 740.823C14.1775 739.277 14.1775 737.834 14.2805 736.494C14.3836 735.567 14.3836 734.897 14.2805 734.485C14.1775 734.073 14.126 733.454 14.126 732.63L14.126 730.156L14.4351 725.983C14.4351 724.952 14.4351 723.922 14.4351 722.891C14.3321 721.861 14.3321 720.83 14.4351 719.8C14.6412 717.429 14.7443 715.162 14.7443 712.998C14.6412 710.731 14.4866 708.876 14.2805 707.433C14.2805 706.712 14.3836 705.424 14.5897 703.569C14.7958 701.714 14.9504 699.91 15.0534 698.158C15.1565 697.025 15.1565 696.097 15.0534 695.376C14.9504 694.655 14.9504 694.036 15.0534 693.521L22.1641 693.521C22.5763 693.521 22.834 693.469 22.937 693.366C23.0401 693.263 23.5038 693.315 24.3282 693.521C24.7405 693.624 24.9981 694.036 25.1011 694.758C25.1011 695.479 25.1011 696.046 25.1011 696.458C25.5134 699.137 25.6679 701.611 25.5649 703.878C25.4618 706.042 25.4103 708.155 25.4103 710.216C25.4103 711.04 25.4103 711.71 25.4103 712.225C25.4103 712.637 25.4618 713.153 25.5649 713.771L29.1202 713.771C29.9447 713.771 31.1813 713.823 32.8302 713.926C34.479 713.926 35.7672 713.926 36.6947 713.926C37.1069 713.926 37.416 713.926 37.6221 713.926C37.8282 713.926 38.1374 713.977 38.5496 714.08C38.8588 714.08 39.374 714.132 40.0954 714.235C40.7137 714.338 41.6412 714.544 42.8779 714.853C44.6298 714.853 46.124 714.853 47.3607 714.853C48.5973 714.853 49.7309 714.853 50.7614 714.853C51.792 714.75 52.8225 714.698 53.8531 714.698C54.7805 714.698 55.9141 714.698 57.2538 714.698L58.7996 714.698C60.5515 715.111 62.3034 715.214 64.0553 715.008C65.8073 714.802 67.5592 714.698 69.3111 714.698L104.555 714.698ZM81.2137 636.692C80.4924 636.692 79.4103 636.692 77.9676 636.692C76.5248 636.589 75.1336 636.589 73.7939 636.692C72.8664 636.589 71.9389 636.538 71.0114 636.538C70.084 636.538 69.105 636.538 68.0744 636.538L55.5534 637.001L48.5973 637.001C48.5973 635.868 48.5973 634.683 48.5973 633.446C48.4943 632.209 48.5458 630.818 48.7519 629.272C48.855 628.86 48.9065 628.448 48.9065 628.036L48.9065 625.872C49.1126 625.15 49.2156 624.79 49.2156 624.79C49.1126 624.79 49.1641 624.635 49.3702 624.326C49.8855 624.326 50.2977 624.377 50.6069 624.48C50.813 624.583 51.1737 624.635 51.6889 624.635L56.6355 624.635C56.1202 624.223 55.708 623.965 55.3989 623.862C54.9866 623.656 54.5229 623.295 54.0076 622.78L53.6985 621.853C52.3588 620.513 51.4828 618.864 51.0706 616.906C50.6584 614.948 50.5553 612.99 50.7614 611.032C50.7614 610.62 50.9676 609.95 51.3798 609.022C51.6889 608.095 52.1011 607.167 52.6164 606.24C52.7195 605.519 52.9256 604.9 53.2347 604.385L53.6985 603.921C54.6259 602.891 55.4504 601.912 56.1717 600.984C56.7901 600.057 57.6145 599.387 58.645 598.975C60.0878 597.944 61.6336 597.12 63.2824 596.501C64.9313 595.883 66.7347 595.316 68.6927 594.801C69.208 594.801 69.6717 594.853 70.084 594.956C70.4962 595.059 70.7023 595.368 70.7023 595.883C71.2176 597.429 71.4752 598.872 71.4752 600.211C71.3721 601.448 71.4237 603.148 71.6298 605.312L71.6298 607.013C71.5267 607.219 71.3721 607.374 71.166 607.477C70.9599 607.477 70.8053 607.477 70.7023 607.477C70.084 607.58 69.5687 607.734 69.1565 607.94C68.6412 608.043 68.229 608.095 67.9198 608.095C67.7137 608.095 67.4561 608.146 67.1469 608.25C66.8378 608.353 66.5801 608.456 66.374 608.559C66.0649 608.765 65.8072 608.919 65.6011 609.022C63.6431 610.98 62.6641 612.887 62.6641 614.742C62.6641 614.948 62.6641 615.257 62.6641 615.669C62.6641 615.979 62.7672 616.288 62.9733 616.597C63.1794 617.112 63.5401 617.885 64.0553 618.916C64.4676 619.843 64.8282 620.461 65.1374 620.771C65.6527 621.286 66.2195 621.853 66.8378 622.471C67.353 622.986 67.9714 623.398 68.6927 623.708C69.105 623.811 69.8263 623.914 70.8569 624.017C71.7843 624.017 72.3511 624.017 72.5572 624.017C73.4847 624.223 74.7214 624.429 76.2672 624.635C77.813 624.841 79.1527 624.944 80.2863 624.944C81.0076 624.944 81.9351 625.047 83.0687 625.253C84.2023 625.356 85.2328 625.408 86.1603 625.408C86.8817 625.408 87.5515 625.459 88.1698 625.562C88.7882 625.562 89.4065 625.562 90.0248 625.562L95.8988 625.562C96.5172 625.562 97.187 625.614 97.9084 625.717C98.6298 625.717 99.3511 625.717 100.073 625.717L103.473 625.717C104.607 630.87 104.607 634.425 103.473 636.383C102.752 636.589 101.876 636.744 100.845 636.847C99.7118 636.95 99.042 636.95 98.8359 636.847C96.9809 636.641 95.1259 636.589 93.271 636.692C91.416 636.795 89.5095 636.847 87.5515 636.847C86.521 636.95 85.4389 636.95 84.3053 636.847C83.1718 636.744 82.1412 636.692 81.2137 636.692ZM44.8874 526.612C44.6813 525.891 44.3721 525.015 43.9599 523.984C43.5477 522.953 43.3416 521.923 43.3416 520.892C43.3416 519.553 43.3416 518.316 43.3416 517.182C43.2385 516.049 43.187 514.812 43.187 513.473C43.187 512.442 43.2385 511.463 43.3416 510.536C43.3416 509.505 43.4962 508.578 43.8053 507.753C43.8053 507.547 43.8569 507.289 43.9599 506.98C44.063 506.671 44.3721 506.259 44.8874 505.744C45.1966 504.713 45.7118 503.734 46.4332 502.807C47.1546 501.879 48.0305 501.055 49.0611 500.333C50.0916 499.509 51.1737 498.787 52.3072 498.169C53.3378 497.448 54.3683 496.829 55.3988 496.314C56.2233 495.799 57.3053 495.49 58.645 495.387C59.9847 495.181 61.0668 494.923 61.8912 494.614C63.334 494.614 64.7252 494.562 66.0649 494.459C67.4046 494.253 68.7958 494.15 70.2385 494.15C72.6088 494.15 74.8759 494.202 77.0401 494.305C79.2042 494.408 81.4714 494.459 83.8416 494.459L88.9427 494.768C89.355 494.768 90.0763 494.974 91.1069 495.387C92.1374 495.799 92.9103 496.057 93.4256 496.16C94.4561 496.469 95.6927 496.881 97.1355 497.396C98.4752 497.912 99.2481 498.272 99.4542 498.478C99.9695 498.994 100.433 499.354 100.845 499.56C101.258 499.766 101.67 499.973 102.082 500.179C102.494 500.282 102.855 500.488 103.164 500.797C103.473 501.003 103.782 501.415 104.092 502.034C104.298 502.549 104.607 503.167 105.019 503.889C105.534 504.61 105.998 505.28 106.41 505.898C106.616 506.413 106.771 506.671 106.874 506.671C107.08 506.671 107.286 507.032 107.492 507.753L108.111 510.536C108.317 511.772 108.368 512.803 108.265 513.627C108.162 514.349 108.111 515.173 108.111 516.1C108.111 518.986 107.544 521.871 106.41 524.757C106.41 525.684 106.204 526.612 105.792 527.539C105.38 528.364 104.916 528.982 104.401 529.394C103.989 529.91 103.525 530.425 103.01 530.94C102.597 531.455 102.134 531.971 101.618 532.486C100.691 533.31 99.7633 533.98 98.8359 534.495C97.9084 535.011 96.9294 535.526 95.8988 536.041C94.7653 536.557 93.6317 537.123 92.4981 537.742C91.2614 538.36 89.9217 538.772 88.479 538.978C86.1088 539.184 83.9446 539.391 81.9866 539.597C80.0286 539.7 78.0706 539.751 76.1126 539.751L69.7748 539.751C69.5687 539.854 69.1565 539.906 68.5382 539.906C67.9198 539.906 67.5076 539.854 67.3015 539.751C66.7863 539.751 66.271 539.751 65.7557 539.751C65.1374 539.648 64.5706 539.545 64.0553 539.442C63.2309 539.339 62.4065 539.287 61.5821 539.287C60.7576 539.287 59.9332 539.03 59.1088 538.515C59.3149 538.618 59.1603 538.566 58.645 538.36C58.0267 538.051 57.4084 537.742 56.7901 537.432C56.0687 537.123 55.4504 536.866 54.9351 536.66C54.4198 536.453 54.2137 536.35 54.3168 536.35L52.3072 535.268C51.9981 534.959 51.6374 534.65 51.2252 534.341C50.813 534.032 50.3492 533.62 49.834 533.104C49.3187 532.486 48.6488 531.713 47.8244 530.786C47 529.755 46.021 528.364 44.8874 526.612ZM70.5477 515.328C70.5477 515.74 70.7538 516.152 71.166 516.564C71.5782 516.873 71.9389 517.079 72.2481 517.182C73.7939 517.904 75.0821 518.265 76.1126 518.265C78.895 518.265 80.75 517.286 81.6775 515.328C81.6775 514.812 81.5229 514.4 81.2137 514.091C80.8015 513.679 80.3893 513.473 79.9771 513.473C78.9466 513.473 77.7614 513.37 76.4217 513.163C75.0821 512.854 73.6908 512.957 72.2481 513.473C71.7328 513.988 71.3206 514.297 71.0114 514.4C70.7023 514.503 70.5477 514.812 70.5477 515.328ZM61.1183 421.465C61.3244 421.362 61.8397 421.31 62.6641 421.31C63.4885 421.31 64.1069 421.31 64.5191 421.31C65.0343 421.516 65.5496 421.619 66.0649 421.619C66.4771 421.619 66.9408 421.619 67.4561 421.619C68.0744 421.619 69.2595 421.568 71.0114 421.465C72.6603 421.362 73.8454 421.31 74.5668 421.31L77.9675 421.31C78.895 421.31 79.8225 421.31 80.75 421.31C81.6775 421.207 82.6049 421.156 83.5324 421.156C84.2538 421.156 84.9752 421.207 85.6966 421.31C86.3149 421.413 86.9847 421.413 87.7061 421.31C88.3244 421.31 88.9427 421.259 89.5611 421.156C90.0763 421.053 90.6431 421.001 91.2614 421.001L105.328 421.001C105.843 421.001 106.359 420.95 106.874 420.846C107.389 420.64 107.595 420.692 107.492 421.001C107.492 422.032 107.595 423.217 107.802 424.556C108.111 425.896 108.265 427.133 108.265 428.266C108.265 429.194 108.214 430.018 108.111 430.74C108.008 431.358 107.698 432.234 107.183 433.367L105.174 433.367C103.216 433.883 101.464 434.192 99.9179 434.295C98.2691 434.295 96.7233 434.295 95.2805 434.295C94.1469 434.295 93.1164 434.295 92.1889 434.295C91.1584 434.295 90.1278 434.192 89.0973 433.986C88.582 433.986 88.1698 434.089 87.8607 434.295C87.7576 434.295 87.5 434.346 87.0878 434.45C86.5725 434.45 86.0572 434.45 85.542 434.45C85.0267 434.45 84.563 434.45 84.1507 434.45C83.6355 434.45 83.2748 434.45 83.0687 434.45L76.5763 434.45C75.3397 434.45 74.103 434.501 72.8664 434.604C71.6298 434.604 70.3931 434.501 69.1565 434.295C69.0534 434.192 68.5897 434.14 67.7653 434.14C66.8378 434.037 65.8588 433.934 64.8282 433.831C63.6946 433.728 62.6641 433.677 61.7366 433.677C60.7061 433.574 60.0878 433.522 59.8817 433.522C58.2328 433.419 56.584 433.419 54.9351 433.522C53.2862 433.522 51.6889 433.471 50.1431 433.367C47.1546 433.367 44.2691 433.419 41.4866 433.522C38.6011 433.522 35.7156 433.471 32.8301 433.367C30.9752 433.367 29.1717 433.367 27.4198 433.367C25.5649 433.367 23.7614 433.419 22.0095 433.522C21.082 433.625 20.3607 433.677 19.8454 433.677C19.3301 433.574 18.8664 433.522 18.4542 433.522C17.9389 433.419 17.4237 433.367 16.9084 433.367C16.3931 433.264 15.6202 433.264 14.5897 433.367C13.5592 433.367 12.5801 433.316 11.6527 433.213C10.6221 433.11 9.64312 433.058 8.71564 433.058C7.6851 433.058 6.80915 433.11 6.08778 433.213C5.3664 433.213 4.49044 433.213 3.45991 433.213L2.68701 432.44C2.68701 431.409 2.73854 430.276 2.84159 429.039C2.94465 427.803 2.94465 426.721 2.84159 425.793C2.73854 424.969 2.68701 424.35 2.68701 423.938C2.68701 423.526 2.68701 422.908 2.68701 422.083C2.68701 421.568 2.84159 421.156 3.15075 420.846C6.55152 420.64 9.90075 420.64 13.1985 420.846C16.4962 421.053 19.9485 421.156 23.5553 421.156L34.3759 421.156C38.0859 421.259 41.5382 421.413 44.7328 421.619C47.9275 421.722 51.0706 421.774 54.1622 421.774C55.2958 421.774 56.4809 421.722 57.7175 421.619C58.8511 421.516 59.9847 421.465 61.1183 421.465ZM61.1183 345.654C61.3244 345.551 61.8397 345.499 62.6641 345.499C63.4885 345.499 64.1069 345.499 64.5191 345.499C65.0343 345.706 65.5496 345.809 66.0649 345.809C66.4771 345.809 66.9408 345.809 67.4561 345.809C68.0744 345.809 69.2595 345.757 71.0114 345.654C72.6603 345.551 73.8454 345.499 74.5668 345.499L77.9675 345.499C78.895 345.499 79.8225 345.499 80.75 345.499C81.6775 345.396 82.6049 345.345 83.5324 345.345C84.2538 345.345 84.9752 345.396 85.6965 345.499C86.3149 345.603 86.9847 345.603 87.7061 345.499C88.3244 345.499 88.9427 345.448 89.5611 345.345C90.0763 345.242 90.6431 345.19 91.2614 345.19L105.328 345.19C105.843 345.19 106.359 345.139 106.874 345.036C107.389 344.83 107.595 344.881 107.492 345.19C107.492 346.221 107.595 347.406 107.802 348.746C108.111 350.085 108.265 351.322 108.265 352.456C108.265 353.383 108.214 354.208 108.111 354.929C108.008 355.547 107.698 356.423 107.183 357.557L105.174 357.557C103.216 358.072 101.464 358.381 99.9179 358.484C98.2691 358.484 96.7233 358.484 95.2805 358.484C94.1469 358.484 93.1164 358.484 92.1889 358.484C91.1584 358.484 90.1278 358.381 89.0973 358.175C88.582 358.175 88.1698 358.278 87.8607 358.484C87.7576 358.484 87.5 358.536 87.0878 358.639C86.5725 358.639 86.0572 358.639 85.542 358.639C85.0267 358.639 84.563 358.639 84.1507 358.639C83.6355 358.639 83.2748 358.639 83.0687 358.639L76.5763 358.639C75.3397 358.639 74.103 358.69 72.8664 358.793C71.6298 358.793 70.3931 358.69 69.1565 358.484C69.0534 358.381 68.5897 358.33 67.7653 358.33C66.8378 358.227 65.8588 358.124 64.8282 358.02C63.6946 357.917 62.6641 357.866 61.7366 357.866C60.7061 357.763 60.0878 357.711 59.8817 357.711C58.2328 357.608 56.584 357.608 54.9351 357.711C53.2862 357.711 51.6889 357.66 50.1431 357.557C47.1546 357.557 44.2691 357.608 41.4866 357.711C38.6011 357.711 35.7156 357.66 32.8301 357.557C30.9752 357.557 29.1717 357.557 27.4198 357.557C25.5649 357.557 23.7614 357.608 22.0095 357.711C21.082 357.814 20.3607 357.866 19.8454 357.866C19.3301 357.763 18.8664 357.711 18.4542 357.711C17.9389 357.608 17.4236 357.557 16.9084 357.557C16.3931 357.454 15.6202 357.454 14.5897 357.557C13.5591 357.557 12.5801 357.505 11.6527 357.402C10.6221 357.299 9.64312 357.248 8.71564 357.248C7.6851 357.248 6.80914 357.299 6.08777 357.402C5.3664 357.402 4.49044 357.402 3.45991 357.402L2.68701 356.629C2.68701 355.599 2.73853 354.465 2.84159 353.229C2.94464 351.992 2.94464 350.91 2.84159 349.982C2.73853 349.158 2.68701 348.54 2.68701 348.127C2.68701 347.715 2.68701 347.097 2.68701 346.272C2.68701 345.757 2.84159 345.345 3.15075 345.036C6.55151 344.83 9.90075 344.83 13.1985 345.036C16.4962 345.242 19.9485 345.345 23.5553 345.345L34.3759 345.345C38.0859 345.448 41.5382 345.603 44.7328 345.809C47.9275 345.912 51.0706 345.963 54.1622 345.963C55.2958 345.963 56.4809 345.912 57.7175 345.809C58.8511 345.706 59.9847 345.654 61.1183 345.654ZM88.1698 255.158C88.6851 254.643 89.0973 253.767 89.4065 252.53C89.7156 251.294 89.6126 250.16 89.0973 249.13C87.8607 247.893 86.2118 246.914 84.1507 246.193C83.1202 245.987 82.1412 245.935 81.2137 246.038C80.1832 246.038 79.2042 246.09 78.2767 246.193C76.4217 245.883 75.0305 246.038 74.103 246.656C73.0725 247.275 71.7843 248.099 70.2385 249.13C69.7233 250.16 69.4656 250.985 69.4656 251.603C69.4656 252.221 69.7233 253.046 70.2385 254.076C70.4446 254.282 71.0114 254.798 71.9389 255.622C72.7633 256.343 73.7423 257.013 74.8759 257.632C75.5973 257.941 76.3702 258.095 77.1946 258.095C78.0191 258.095 78.6889 258.095 79.2042 258.095C79.4103 258.095 79.9256 258.198 80.75 258.404C81.5744 258.508 82.5019 258.353 83.5324 257.941C84.4599 257.632 85.4389 257.168 86.4694 256.55C87.3969 255.828 87.9637 255.364 88.1698 255.158ZM106.874 276.645C106.874 277.469 106.926 278.345 107.029 279.273C107.132 280.097 107.132 280.973 107.029 281.901L96.0534 281.901C94.5076 281.901 93.3225 282.055 92.4981 282.364C91.5706 282.674 90.3855 282.777 88.9427 282.674C87.0878 282.467 85.1813 282.416 83.2233 282.519C81.2652 282.519 79.3072 282.571 77.3492 282.674L72.4027 282.983C70.6507 282.983 68.8473 283.034 66.9923 283.137C65.1374 283.24 63.2824 283.292 61.4275 283.292C60.5 283.292 59.5725 283.292 58.645 283.292C57.6145 283.189 56.6355 283.24 55.708 283.446C54.6775 283.446 53.6469 283.395 52.6164 283.292C51.5859 283.189 50.6069 283.292 49.6794 283.601C49.2672 283.601 48.5458 283.601 47.5152 283.601C46.4847 283.601 45.3511 283.601 44.1145 283.601C42.7748 283.498 41.4351 283.446 40.0954 283.446C38.7557 283.343 37.5706 283.24 36.5401 283.137L20.4637 282.983C17.4752 282.571 14.2805 282.364 10.8798 282.364C7.47899 282.261 4.0267 282.21 0.522883 282.21C0.213721 281.076 0.0591393 279.737 0.0591392 278.191C0.0591391 276.542 0.21372 274.945 0.522883 273.399C0.625935 272.987 0.677461 272.626 0.677461 272.317C0.574409 271.904 0.574409 271.492 0.677461 271.08C0.677461 270.977 0.72899 270.822 0.832048 270.616C1.03815 270.204 1.34731 269.998 1.75953 269.998C3.82059 269.792 5.88166 269.792 7.94273 269.998C9.90075 270.101 11.9103 270.05 13.9714 269.843C15.7233 269.74 17.3721 269.74 18.9179 269.843C20.4637 269.843 22.1641 269.843 24.0191 269.843C25.771 269.946 27.1622 269.946 28.1927 269.843C29.2233 269.74 30.6145 269.74 32.3664 269.843L36.0763 269.998L42.1049 269.998C42.9294 269.998 44.4236 269.998 46.5878 269.998C48.6488 269.895 50.7099 269.843 52.771 269.843C54.9351 269.843 56.8416 269.843 58.4904 269.843C60.1393 269.843 61.3759 269.895 62.2004 269.998C61.6851 269.483 61.2729 269.174 60.9637 269.071C60.5515 268.864 60.3454 268.555 60.3454 268.143C59.3149 267.112 58.1813 266.082 56.9446 265.051C55.708 263.918 54.832 262.63 54.3168 261.187C53.8015 260.053 53.5439 259.177 53.5439 258.559C53.4408 257.941 53.3893 257.168 53.3893 256.24C52.874 254.179 52.6164 252.015 52.6164 249.748C52.6164 247.378 52.874 245.214 53.3893 243.256C56.0687 236.454 60.3454 232.126 66.2194 230.271C67.25 229.756 68.2805 229.292 69.311 228.88C70.2385 228.467 71.2175 228.261 72.2481 228.261C74.2061 227.746 76.0095 227.437 77.6584 227.334C79.3072 227.231 81.1622 227.179 83.2233 227.179C84.3568 227.179 85.542 227.231 86.7786 227.334C87.9122 227.437 88.9943 227.643 90.0248 227.952C90.7462 228.158 91.6221 228.467 92.6526 228.88C93.6832 229.292 94.5076 229.601 95.1259 229.807C97.2901 230.632 99.0935 231.559 100.536 232.59C101.876 233.62 103.37 235.166 105.019 237.227C105.534 237.742 105.998 238.258 106.41 238.773C106.822 239.185 107.029 239.649 107.029 240.164C108.059 241.195 108.832 242.38 109.347 243.719C109.863 244.956 110.12 246.09 110.12 247.12L110.12 251.139C109.811 252.788 109.45 254.334 109.038 255.777C108.626 257.219 107.905 258.662 106.874 260.105C106.771 260.311 106.462 260.826 105.947 261.651C105.534 262.372 105.019 263.145 104.401 263.969C103.782 264.794 103.061 265.618 102.237 266.443C101.515 267.267 100.794 267.834 100.072 268.143C99.8664 268.143 99.7118 268.298 99.6088 268.607C99.4027 268.813 99.1965 269.019 98.9904 269.225C100.021 269.328 101.258 269.431 102.7 269.534C104.143 269.534 105.586 269.534 107.029 269.534L106.874 276.645ZM44.8874 157.401C44.6813 156.679 44.3721 155.804 43.9599 154.773C43.5477 153.742 43.3416 152.712 43.3416 151.681C43.3416 150.342 43.3416 149.105 43.3416 147.971C43.2385 146.838 43.187 145.601 43.187 144.262C43.187 143.231 43.2385 142.252 43.3416 141.325C43.3416 140.294 43.4962 139.366 43.8053 138.542C43.8053 138.336 43.8568 138.078 43.9599 137.769C44.063 137.46 44.3721 137.048 44.8874 136.533C45.1965 135.502 45.7118 134.523 46.4332 133.595C47.1546 132.668 48.0305 131.844 49.061 131.122C50.0916 130.298 51.1736 129.576 52.3072 128.958C53.3378 128.237 54.3683 127.618 55.3988 127.103C56.2233 126.588 57.3053 126.279 58.645 126.176C59.9847 125.97 61.0668 125.712 61.8912 125.403C63.3339 125.403 64.7252 125.351 66.0649 125.248C67.4046 125.042 68.7958 124.939 70.2385 124.939C72.6088 124.939 74.8759 124.991 77.0401 125.094C79.2042 125.197 81.4713 125.248 83.8416 125.248L88.9427 125.557C89.3549 125.557 90.0763 125.763 91.1068 126.176C92.1374 126.588 92.9103 126.845 93.4255 126.949C94.4561 127.258 95.6927 127.67 97.1355 128.185C98.4752 128.7 99.2481 129.061 99.4542 129.267C99.9694 129.783 100.433 130.143 100.845 130.349C101.258 130.555 101.67 130.762 102.082 130.968C102.494 131.071 102.855 131.277 103.164 131.586C103.473 131.792 103.782 132.204 104.092 132.823C104.298 133.338 104.607 133.956 105.019 134.678C105.534 135.399 105.998 136.069 106.41 136.687C106.616 137.202 106.771 137.46 106.874 137.46C107.08 137.46 107.286 137.821 107.492 138.542L108.111 141.325C108.317 142.561 108.368 143.592 108.265 144.416C108.162 145.137 108.111 145.962 108.111 146.889C108.111 149.775 107.544 152.66 106.41 155.546C106.41 156.473 106.204 157.401 105.792 158.328C105.38 159.153 104.916 159.771 104.401 160.183C103.989 160.699 103.525 161.214 103.01 161.729C102.597 162.244 102.134 162.76 101.618 163.275C100.691 164.099 99.7633 164.769 98.8359 165.284C97.9084 165.8 96.9294 166.315 95.8988 166.83C94.7652 167.345 93.6317 167.912 92.4981 168.531C91.2614 169.149 89.9217 169.561 88.479 169.767C86.1088 169.973 83.9446 170.179 81.9866 170.386C80.0286 170.489 78.0706 170.54 76.1126 170.54L69.7748 170.54C69.5687 170.643 69.1565 170.695 68.5381 170.695C67.9198 170.695 67.5076 170.643 67.3015 170.54C66.7862 170.54 66.271 170.54 65.7557 170.54C65.1374 170.437 64.5706 170.334 64.0553 170.231C63.2309 170.128 62.4065 170.076 61.582 170.076C60.7576 170.076 59.9332 169.819 59.1088 169.304C59.3149 169.407 59.1603 169.355 58.645 169.149C58.0267 168.84 57.4084 168.531 56.7901 168.221C56.0687 167.912 55.4504 167.655 54.9351 167.449C54.4198 167.242 54.2137 167.139 54.3168 167.139L52.3072 166.057C51.9981 165.748 51.6374 165.439 51.2252 165.13C50.813 164.821 50.3492 164.408 49.8339 163.893C49.3187 163.275 48.6488 162.502 47.8244 161.575C47 160.544 46.021 159.153 44.8874 157.401ZM70.5477 146.116C70.5477 146.529 70.7538 146.941 71.166 147.353C71.5782 147.662 71.9389 147.868 72.2481 147.971C73.7939 148.693 75.082 149.054 76.1126 149.054C78.895 149.054 80.75 148.075 81.6775 146.116C81.6775 145.601 81.5229 145.189 81.2137 144.88C80.8015 144.468 80.3893 144.262 79.9771 144.262C78.9465 144.262 77.7614 144.158 76.4217 143.952C75.082 143.643 73.6908 143.746 72.2481 144.262C71.7328 144.777 71.3206 145.086 71.0114 145.189C70.7023 145.292 70.5477 145.601 70.5477 146.116ZM52.1526 25.3568C51.6374 25.2537 50.916 24.8931 49.9885 24.2747C48.958 23.5534 48.1336 22.935 47.5152 22.4198C47.6183 20.977 47.7213 19.895 47.8244 19.1736C47.8244 18.3492 47.7213 17.4217 47.5152 16.3912C47.5152 15.8759 47.5152 15.4121 47.5152 14.9999C47.4122 14.4847 47.4122 13.9694 47.5152 13.4541C47.7213 12.6297 47.7729 11.7022 47.6698 10.6717C47.5668 9.64115 47.5152 8.71367 47.5152 7.88925C47.5152 4.90069 47.8244 3.30337 48.4427 3.09726C49.8855 4.02474 51.1221 5.00375 52.1526 6.03428C53.1832 6.96177 54.1107 7.94077 54.9351 8.97131C55.9656 9.79574 57.0992 10.6717 58.3358 11.5992C59.5725 12.5266 60.6545 13.4541 61.582 14.3816C62.5095 15.4121 63.6431 16.3912 64.9828 17.3186C66.2194 18.1431 67.25 18.7614 68.0744 19.1736C69.208 20.2041 70.4962 21.1831 71.9389 22.1106C73.2786 23.0381 74.4637 23.9656 75.4942 24.8931C76.5248 24.1717 77.4523 23.5534 78.2767 23.0381C78.9981 22.4198 79.771 21.7499 80.5954 21.0286C81.3168 20.3072 82.1412 19.5343 83.0687 18.7099C83.8931 17.7824 85.0782 16.8034 86.624 15.7728C88.6851 13.8148 90.7977 11.7022 92.9618 9.43504C95.0229 7.06481 97.2385 5.00375 99.6087 3.25184C99.9179 2.83962 100.485 2.27283 101.309 1.55146C102.237 0.72703 102.906 0.26329 103.319 0.160234C103.834 0.160234 104.092 0.211762 104.092 0.314817C104.195 0.417869 104.246 0.727029 104.246 1.2423C104.349 1.4484 104.401 1.70604 104.401 2.0152C104.504 2.32436 104.555 2.73657 104.555 3.25184C104.555 4.17932 104.504 5.1068 104.401 6.03428C104.298 6.96176 104.246 7.94077 104.246 8.9713C104.246 9.79573 104.246 10.5686 104.246 11.29C104.246 11.9083 104.349 12.6297 104.555 13.4541C104.555 13.9694 104.607 14.5362 104.71 15.1545C104.813 15.6698 104.658 16.3912 104.246 17.3186C104.04 17.3186 103.679 17.5247 103.164 17.937C102.649 18.3492 102.288 18.6583 102.082 18.8644C101.567 19.2766 101.155 19.6373 100.845 19.9465C100.433 20.2557 99.9694 20.6679 99.4542 21.1831L96.5171 23.811C96.0019 24.3263 95.5897 24.8415 95.2805 25.3568C94.8683 25.8721 94.4045 26.3358 93.8893 26.748C92.7557 27.5724 91.7767 28.2938 90.9523 28.9121C90.0248 29.5305 89.0973 30.3549 88.1698 31.3854C87.6545 31.9007 87.2939 32.2614 87.0878 32.4675C86.7786 32.5705 86.3664 32.8797 85.8511 33.395C86.1603 33.9102 86.521 34.4255 86.9332 34.9408C87.2423 35.353 87.6545 35.7652 88.1698 36.1774C89.6126 37.6202 91.1584 38.9083 92.8072 40.0419C94.353 41.0724 95.8473 42.3091 97.29 43.7518L100.382 46.0705C100.691 46.4828 101.258 46.895 102.082 47.3072C103.01 47.6163 103.731 48.0286 104.246 48.5438L104.246 54.2633C104.246 55.603 104.092 56.9942 103.782 58.437C103.576 59.7766 103.731 61.2194 104.246 62.7652L104.246 68.4847C103.731 68.4847 103.37 68.4331 103.164 68.3301C103.061 68.227 102.752 67.9179 102.237 67.4026C99.4542 65.5476 96.6717 62.9713 93.8893 59.6736C93.374 59.3644 92.7557 58.9522 92.0343 58.437C91.2099 57.9217 90.54 57.4064 90.0248 56.8912C89.5095 56.0667 88.6851 55.3453 87.5515 54.727C86.3149 54.1087 85.2843 53.2843 84.4599 52.2537C83.3263 51.3263 82.1412 50.3988 80.9045 49.4713C79.5649 48.5438 78.3282 47.6163 77.1946 46.6889C76.8855 46.2766 76.5763 46.0705 76.2671 46.0705C75.7519 46.0705 75.2881 46.2251 74.8759 46.5343L70.5477 49.6259C69.9294 50.1412 69.311 50.7079 68.6927 51.3263C68.0744 51.9446 67.4561 52.5114 66.8378 53.0266C65.7042 53.8511 64.5706 54.727 63.437 55.6545C62.3034 56.582 61.3244 57.4579 60.5 58.2824L54.6259 63.2289C54.1107 63.7442 53.2862 64.4656 52.1526 65.3931C50.916 66.3205 49.937 66.9904 49.2156 67.4026L48.4427 67.4026L48.4427 66.4751C48.4427 65.3415 48.4427 64.0018 48.4427 62.456C48.3397 60.8072 48.2881 59.416 48.2881 58.2824C48.2881 57.1488 48.3397 56.2213 48.4427 55.4999C48.4427 54.7786 48.3397 53.9026 48.1336 52.8721C48.1336 52.3568 48.1851 51.5839 48.2881 50.5534C48.2881 49.4198 48.3397 48.7499 48.4427 48.5438C48.8549 48.0286 49.3187 47.6679 49.8339 47.4618C50.3492 47.1526 50.8129 46.8434 51.2252 46.5343C52.6679 45.0915 54.1107 43.9064 55.5534 42.9789C56.8931 41.9484 58.2843 40.9694 59.7271 40.0419C60.6545 39.5266 61.4275 39.0629 62.0458 38.6507C62.561 38.1354 63.2824 37.6202 64.2099 37.1049L65.4465 35.8683C65.1374 35.456 64.8282 35.1469 64.5191 34.9408C64.1068 34.6316 63.6946 34.3225 63.2824 34.0133C62.9733 33.498 62.1488 32.7251 60.8091 31.6946C59.3664 30.561 57.8206 29.3759 56.1717 28.1392C54.5229 26.9026 53.1832 25.9751 52.1526 25.3568Z" fill="#21EED1"/>
</svg>
