<svg width="957" height="206" viewBox="0 0 957 206" fill="none" xmlns="http://www.w3.org/2000/svg">
<path d="M19.3225 106.677H0V29.3874H19.3225V48.7099H38.645V68.0324H19.3225V106.677ZM19.3225 126V106.677H38.645V126H19.3225ZM123.664 126H104.342V48.7099H142.987V68.0324H123.664V126ZM228.006 68.0324V48.7099H247.328V68.0324H228.006ZM228.006 106.677H208.683V68.0324H228.006V106.677ZM266.651 106.677H247.328V68.0324H266.651V106.677ZM247.328 106.677V126H228.006V106.677H247.328ZM351.67 126H332.347V29.3874H351.67V126ZM436.689 126H417.366V29.3874H436.689V126ZM521.708 106.677H541.031V126H502.385V29.3874H521.708V48.7099H541.031V68.0324H521.708V106.677ZM541.031 106.677V68.0324H560.353V106.677H541.031ZM645.372 68.0324V48.7099H664.695V68.0324H645.372ZM645.372 106.677H626.05V68.0324H645.372V106.677ZM684.017 106.677H664.695V68.0324H684.017V106.677ZM664.695 106.677V126H645.372V106.677H664.695ZM749.714 68.0324V48.7099H769.036V68.0324H749.714ZM788.359 68.0324V48.7099H807.681V68.0324H788.359ZM788.359 106.677H769.036V68.0324H788.359V106.677ZM769.036 106.677V126H749.714V106.677H769.036ZM788.359 126V106.677H807.681V126H788.359Z" fill="white"/>
<path d="M715.524 168.314V153.894H714.949C714.062 153.894 713.426 153.726 713.043 153.391C712.671 153.043 712.485 152.594 712.485 152.042C712.485 151.491 712.671 151.047 713.043 150.712C713.426 150.364 714.062 150.19 714.949 150.19H724.19C726.396 150.19 728.17 150.808 729.512 152.042C730.855 153.265 731.526 154.721 731.526 156.411C731.526 157.215 731.37 157.97 731.059 158.677C730.747 159.384 730.274 160.037 729.638 160.637C730.801 161.332 731.67 162.147 732.245 163.082C732.833 164.005 733.126 165.054 733.126 166.228C733.126 167.163 732.917 168.032 732.497 168.836C732.185 169.447 731.802 169.932 731.346 170.292C730.735 170.795 729.986 171.209 729.099 171.533C728.212 171.844 727.103 172 725.773 172H714.949C714.062 172 713.426 171.832 713.043 171.497C712.671 171.149 712.485 170.699 712.485 170.148C712.485 169.609 712.677 169.171 713.061 168.836C713.444 168.488 714.074 168.314 714.949 168.314H715.524ZM719.21 159.252H723.255C724.706 159.252 725.91 158.887 726.869 158.155C727.517 157.664 727.84 157.053 727.84 156.322C727.84 155.674 727.535 155.111 726.923 154.631C726.312 154.14 725.341 153.894 724.011 153.894H719.21V159.252ZM719.21 168.314H725.575C727.073 168.314 728.128 168.092 728.739 167.649C729.207 167.313 729.441 166.834 729.441 166.21C729.441 165.467 728.979 164.736 728.056 164.017C727.133 163.298 725.809 162.938 724.082 162.938H719.21V168.314ZM752.426 162.902V168.314H761.83V166.318C761.83 165.431 761.997 164.802 762.333 164.43C762.681 164.047 763.13 163.855 763.681 163.855C764.221 163.855 764.658 164.047 764.994 164.43C765.342 164.802 765.515 165.431 765.515 166.318V172H748.165C747.278 172 746.642 171.832 746.259 171.497C745.887 171.149 745.702 170.699 745.702 170.148C745.702 169.609 745.893 169.171 746.277 168.836C746.66 168.488 747.29 168.314 748.165 168.314H748.74V153.894H748.165C747.278 153.894 746.642 153.726 746.259 153.391C745.887 153.043 745.702 152.594 745.702 152.042C745.702 151.491 745.887 151.047 746.259 150.712C746.642 150.364 747.278 150.19 748.165 150.19L764.706 150.208V155.818C764.706 156.693 764.538 157.322 764.203 157.706C763.867 158.078 763.424 158.263 762.872 158.263C762.321 158.263 761.871 158.078 761.524 157.706C761.188 157.334 761.02 156.705 761.02 155.818V153.894H752.426V159.216H755.662C755.662 158.257 755.752 157.64 755.932 157.364C756.304 156.777 756.831 156.483 757.514 156.483C758.054 156.483 758.491 156.675 758.827 157.059C759.174 157.43 759.348 158.06 759.348 158.947V163.19C759.348 163.993 759.252 164.532 759.061 164.808C758.677 165.371 758.162 165.653 757.514 165.653C756.831 165.653 756.304 165.359 755.932 164.772C755.752 164.496 755.662 163.873 755.662 162.902H752.426ZM791.162 153.894V168.314H793.643C794.53 168.314 795.159 168.488 795.531 168.836C795.915 169.171 796.106 169.615 796.106 170.166C796.106 170.705 795.915 171.149 795.531 171.497C795.159 171.832 794.53 172 793.643 172H785.013C784.126 172 783.49 171.832 783.107 171.497C782.735 171.149 782.55 170.699 782.55 170.148C782.55 169.609 782.735 169.171 783.107 168.836C783.49 168.488 784.126 168.314 785.013 168.314H787.476V153.894H783.484V157.382C783.484 158.269 783.311 158.905 782.963 159.288C782.627 159.66 782.184 159.846 781.633 159.846C781.093 159.846 780.65 159.66 780.302 159.288C779.966 158.905 779.799 158.269 779.799 157.382V150.19L798.893 150.208V157.382C798.893 158.269 798.719 158.905 798.372 159.288C798.036 159.66 797.593 159.846 797.041 159.846C796.502 159.846 796.058 159.66 795.711 159.288C795.375 158.905 795.207 158.269 795.207 157.382V153.894H791.162ZM827.039 166.067H818.085L817.186 168.314H818.085C818.972 168.314 819.601 168.488 819.973 168.836C820.356 169.171 820.548 169.615 820.548 170.166C820.548 170.705 820.356 171.149 819.973 171.497C819.601 171.832 818.972 172 818.085 172H813.123C812.236 172 811.606 171.832 811.235 171.497C810.851 171.149 810.659 170.699 810.659 170.148C810.659 169.597 810.857 169.147 811.253 168.8C811.648 168.452 812.301 168.29 813.212 168.314L819.002 153.894H816.593C815.706 153.894 815.07 153.726 814.687 153.391C814.315 153.043 814.129 152.594 814.129 152.042C814.129 151.491 814.315 151.047 814.687 150.712C815.07 150.364 815.706 150.19 816.593 150.19L824.558 150.208L831.894 168.314C832.757 168.314 833.326 168.41 833.602 168.602C834.153 168.997 834.429 169.519 834.429 170.166C834.429 170.705 834.243 171.149 833.871 171.497C833.5 171.832 832.87 172 831.983 172H827.021C826.134 172 825.499 171.832 825.115 171.497C824.744 171.149 824.558 170.699 824.558 170.148C824.558 169.609 824.744 169.171 825.115 168.836C825.499 168.488 826.134 168.314 827.021 168.314H827.92L827.039 166.067ZM825.511 162.381L822.544 155.081L819.559 162.381H825.511Z" fill="#F03AA9" fill-opacity="0.85"/>
</svg>
