<svg width="206" height="873" viewBox="0 0 206 873" fill="none" xmlns="http://www.w3.org/2000/svg">
<path d="M106.678 853.677L106.678 873L29.3874 873L29.3874 853.677L48.71 853.677L48.71 834.355L68.0325 834.355L68.0325 853.677L106.678 853.677ZM126 853.677L106.678 853.677L106.678 834.355L126 834.355L126 853.677ZM126 749.336L126 768.658L48.71 768.658L48.71 730.013L68.0325 730.013L68.0325 749.336L126 749.336ZM68.0325 644.994L48.71 644.994L48.71 625.672L68.0325 625.672L68.0325 644.994ZM106.678 644.994L106.678 664.317L68.0325 664.317L68.0325 644.994L106.678 644.994ZM106.678 606.349L106.678 625.672L68.0325 625.672L68.0325 606.349L106.678 606.349ZM106.678 625.672L126 625.672L126 644.994L106.678 644.994L106.678 625.672ZM126 521.33L126 540.653L29.3874 540.653L29.3874 521.33L126 521.33ZM126 436.311L126 455.634L29.3874 455.634L29.3874 436.311L126 436.311ZM106.677 351.292L106.677 331.969L126 331.969L126 370.614L29.3874 370.614L29.3874 351.292L48.7099 351.292L48.7099 331.969L68.0325 331.969L68.0325 351.292L106.677 351.292ZM106.677 331.969L68.0325 331.969L68.0325 312.647L106.677 312.647L106.677 331.969ZM68.0325 227.628L48.7099 227.628L48.7099 208.305L68.0324 208.305L68.0325 227.628ZM106.677 227.628L106.677 246.95L68.0325 246.95L68.0325 227.628L106.677 227.628ZM106.677 188.983L106.677 208.305L68.0324 208.305L68.0324 188.983L106.677 188.983ZM106.677 208.305L126 208.305L126 227.628L106.677 227.628L106.677 208.305ZM68.0324 123.286L48.7099 123.286L48.7099 103.964L68.0324 103.964L68.0324 123.286ZM68.0324 84.6412L48.7099 84.6412L48.7099 65.3187L68.0324 65.3187L68.0324 84.6412ZM106.677 84.6412L106.677 103.964L68.0324 103.964L68.0324 84.6412L106.677 84.6412ZM106.677 103.964L126 103.964L126 123.286L106.677 123.286L106.677 103.964ZM126 84.6412L106.677 84.6412L106.677 65.3187L126 65.3187L126 84.6412Z" fill="white"/>
<path d="M168.314 157.476L153.894 157.476L153.894 158.051C153.894 158.938 153.726 159.574 153.391 159.957C153.043 160.329 152.594 160.515 152.042 160.515C151.491 160.515 151.047 160.329 150.712 159.957C150.364 159.574 150.19 158.938 150.19 158.051L150.19 148.81C150.19 146.604 150.808 144.83 152.042 143.488C153.265 142.145 154.721 141.474 156.411 141.474C157.215 141.474 157.97 141.63 158.677 141.941C159.384 142.253 160.037 142.726 160.637 143.362C161.332 142.199 162.147 141.33 163.082 140.755C164.005 140.167 165.054 139.874 166.228 139.874C167.163 139.874 168.032 140.083 168.836 140.503C169.447 140.815 169.932 141.198 170.292 141.654C170.795 142.265 171.209 143.014 171.533 143.901C171.844 144.788 172 145.897 172 147.227L172 158.051C172 158.938 171.832 159.574 171.497 159.957C171.149 160.329 170.699 160.515 170.148 160.515C169.609 160.515 169.171 160.323 168.836 159.939C168.488 159.556 168.314 158.926 168.314 158.051L168.314 157.476ZM159.252 153.79L159.252 149.745C159.252 148.294 158.887 147.09 158.155 146.131C157.664 145.483 157.053 145.16 156.322 145.16C155.674 145.16 155.111 145.465 154.631 146.077C154.14 146.688 153.894 147.659 153.894 148.989L153.894 153.79L159.252 153.79ZM168.314 153.79L168.314 147.425C168.314 145.927 168.092 144.872 167.649 144.261C167.313 143.793 166.834 143.56 166.21 143.56C165.467 143.56 164.736 144.021 164.017 144.944C163.298 145.867 162.938 147.191 162.938 148.918L162.938 153.79L168.314 153.79ZM162.902 120.574L168.314 120.574L168.314 111.171L166.318 111.171C165.431 111.171 164.802 111.003 164.43 110.667C164.047 110.32 163.855 109.87 163.855 109.319C163.855 108.779 164.047 108.342 164.43 108.006C164.802 107.658 165.431 107.485 166.318 107.485L172 107.485L172 124.835C172 125.722 171.832 126.358 171.497 126.741C171.149 127.113 170.699 127.299 170.148 127.299C169.609 127.299 169.171 127.107 168.836 126.723C168.488 126.34 168.314 125.71 168.314 124.835L168.314 124.26L153.894 124.26L153.894 124.835C153.894 125.722 153.726 126.358 153.391 126.741C153.043 127.113 152.594 127.299 152.042 127.299C151.491 127.299 151.047 127.113 150.712 126.741C150.364 126.358 150.19 125.722 150.19 124.835L150.208 108.294L155.818 108.294C156.693 108.294 157.322 108.462 157.706 108.797C158.078 109.133 158.263 109.576 158.263 110.128C158.263 110.679 158.078 111.129 157.706 111.476C157.334 111.812 156.705 111.98 155.818 111.98L153.894 111.98L153.894 120.574L159.216 120.574L159.216 117.338C158.257 117.338 157.64 117.248 157.364 117.068C156.777 116.696 156.483 116.169 156.483 115.486C156.483 114.946 156.675 114.509 157.059 114.173C157.43 113.826 158.06 113.652 158.947 113.652L163.19 113.652C163.993 113.652 164.532 113.748 164.808 113.939C165.371 114.323 165.653 114.838 165.653 115.486C165.653 116.169 165.359 116.696 164.772 117.068C164.496 117.248 163.873 117.338 162.902 117.338L162.902 120.574ZM153.894 81.8381L168.314 81.8381L168.314 79.3569C168.314 78.4699 168.488 77.8406 168.836 77.469C169.171 77.0855 169.615 76.8937 170.166 76.8937C170.705 76.8937 171.149 77.0855 171.497 77.469C171.832 77.8406 172 78.4699 172 79.3569L172 87.9873C172 88.8743 171.832 89.5096 171.497 89.8931C171.149 90.2647 170.699 90.4505 170.148 90.4505C169.609 90.4505 169.171 90.2647 168.836 89.8931C168.488 89.5096 168.314 88.8743 168.314 87.9873L168.314 85.524L153.894 85.524L153.894 89.5156L157.382 89.5156C158.269 89.5156 158.905 89.6894 159.288 90.037C159.66 90.3726 159.846 90.8161 159.846 91.3675C159.846 91.9069 159.66 92.3504 159.288 92.698C158.905 93.0336 158.269 93.2014 157.382 93.2014L150.19 93.2014L150.208 74.1068L157.382 74.1068C158.269 74.1068 158.905 74.2806 159.288 74.6282C159.66 74.9638 159.846 75.4073 159.846 75.9587C159.846 76.4981 159.66 76.9416 159.288 77.2892C158.905 77.6249 158.269 77.7927 157.382 77.7927L153.894 77.7927L153.894 81.8381ZM166.067 45.961L166.067 54.915L168.314 55.814L168.314 54.915C168.314 54.028 168.488 53.3987 168.836 53.0271C169.171 52.6436 169.615 52.4518 170.166 52.4518C170.705 52.4518 171.149 52.6436 171.497 53.0271C171.832 53.3987 172 54.028 172 54.915L172 59.8775C172 60.7645 171.832 61.3938 171.497 61.7654C171.149 62.149 170.699 62.3407 170.148 62.3407C169.597 62.3407 169.147 62.143 168.8 61.7474C168.452 61.3518 168.29 60.6986 168.314 59.7876L153.894 53.9981L153.894 56.4074C153.894 57.2944 153.726 57.9297 153.391 58.3132C153.043 58.6848 152.594 58.8706 152.042 58.8706C151.491 58.8706 151.047 58.6848 150.712 58.3132C150.364 57.9297 150.19 57.2944 150.19 56.4074L150.208 48.4423L168.314 41.1065C168.314 40.2434 168.41 39.6741 168.602 39.3984C168.997 38.847 169.519 38.5713 170.166 38.5713C170.705 38.5713 171.149 38.7571 171.497 39.1287C171.832 39.5003 172 40.1296 172 41.0166L172 45.979C172 46.866 171.832 47.5013 171.497 47.8849C171.149 48.2565 170.699 48.4423 170.148 48.4423C169.609 48.4423 169.171 48.2565 168.836 47.8849C168.488 47.5013 168.314 46.866 168.314 45.979L168.314 45.08L166.067 45.961ZM162.381 47.4893L155.081 50.456L162.381 53.4407L162.381 47.4893Z" fill="#F03AA9" fill-opacity="0.85"/>
</svg>
