<svg viewBox="0 0 28 24" fill="none" xmlns="http://www.w3.org/2000/svg">
  <path
    fill-rule="evenodd"
    clip-rule="evenodd"
    d="M21.448 23.735C21.8236 24.0086 22.3078 24.077 22.7394 23.909C23.1711 23.7398 23.4884 23.3606 23.5841 22.901C24.5979 18.0002 27.0572 5.59578 27.98 1.13778C28.05 0.801779 27.9333 0.452578 27.6767 0.228178C27.42 0.00377795 27.0642 -0.0610223 26.7469 0.0601779C21.8551 1.92258 6.79031 7.73659 0.632783 10.0802C0.241959 10.229 -0.0123689 10.6154 0.000464152 11.039C0.0144638 11.4638 0.292124 11.8322 0.692282 11.9558C3.45372 12.8054 7.07847 13.9874 7.07847 13.9874C7.07847 13.9874 8.77243 19.2494 9.65558 21.9254C9.76641 22.2614 10.0219 22.5254 10.3591 22.6166C10.6951 22.7066 11.0544 22.6118 11.3052 22.3682C12.7238 20.9906 14.9171 18.8606 14.9171 18.8606C14.9171 18.8606 19.0844 22.0034 21.448 23.735ZM8.60327 13.3226L10.5621 19.9682L10.9972 15.7598C10.9972 15.7598 18.5652 8.73859 22.8794 4.73658C23.0054 4.61898 23.0229 4.42218 22.9179 4.28418C22.8141 4.14618 22.6228 4.11378 22.4793 4.20738C17.4791 7.49179 8.60327 13.3226 8.60327 13.3226Z"
    fill="white"
  />
</svg>
